PathFileType	4	(X/Y/Z)	C:\Users\WrightLab\Desktop\Jo\P5V29.trc
DataRate	CameraRate	NumFrames	NumMarkers	Units	OrigDataRate	OrigDataStartFrame	OrigNumFrames
100.00	100.00	       12	19	mm	100.00	570	       759
Frame#	Time	Headset_Front			Headset_Back			Headset_Left			Headset_Right			Left_Shoulder			Right_Shoulder			Sternum			C7			Left Elbow			Right Elbow			Left Wrist			Right Wrist			Left ASIS			Right ASIS			S2			Left Knee			Right Knee			Left Ankle			Right Ankle			
		X1	Y1	Z1	X2	Y2	Z2	X3	Y3	Z3	X4	Y4	Z4	X5	Y5	Z5	X6	Y6	Z6	X7	Y7	Z7	X8	Y8	Z8	X9	Y9	Z9	X10	Y10	Z10	X11	Y11	Z11	X12	Y12	Z12	X13	Y13	Z13	X14	Y14	Z14	X15	Y15	Z15	X16	Y16	Z16	X17	Y17	Z17	X18	Y18	Z18	X19	Y19	Z19	

570	5.690	124.59322	1396.97046	-55.93231							31.06133	1501.99146	-0.13277	24.97025	1510.17310	-398.42456	-80.69365	1406.44141	-36.07055	-10.15876	1282.35681	-222.77101	-161.88429	1531.38794	-227.12149	14.66031	1228.67883	-517.57147	-27.63290	1152.50842	76.47065	55.47066	988.71564	-450.06311	166.80986	1007.97882	129.11523	-2.00630	925.81085	-360.95697	-150.98105	924.69836	-119.58270	-268.67517	1016.81433	-396.78586	-10.64998	495.19794	-406.51529	-299.62927	491.68008	-129.98860	-90.12133	83.90513	-352.52975	-407.80966	104.40556	-197.93625	
571	5.700	124.19839	1396.57080	-55.44203							30.66749	1502.13770	-0.12526	25.08896	1510.10327	-398.58282	-79.98890	1406.75464	-33.83586	-10.34293	1282.52710	-222.20952	-161.96997	1531.43518	-226.93599	14.72556	1228.73767	-517.57788	-28.41417	1152.73157	76.73526	55.43404	988.54053	-449.54108	165.93668	1008.39008	129.74117	-1.29772	926.12360	-360.92932	-150.98332	924.67859	-119.57880	-268.57721	1016.90900	-396.56476	-10.33631	495.17874	-406.01843	-299.68832	491.80212	-130.18156	-90.03221	83.71318	-352.39413	-407.81055	104.39651	-197.95483	
572	5.710	123.81952	1396.28357	-55.19547							30.42226	1501.88574	0.09005	25.07606	1510.14221	-398.56339	-80.57585	1406.57910	-33.59272	-10.50961	1282.52698	-221.99455	-162.05515	1531.45117	-226.92632	14.78135	1228.84192	-517.03394	-29.28760	1152.85571	77.30920	54.89309	988.70142	-449.37289	165.16283	1008.80811	131.10960	-1.39416	926.24268	-360.91916	-151.31577	924.71442	-119.22697	-268.50903	1016.89001	-396.53864	-10.21945	495.16534	-405.81955	-299.79398	491.53726	-129.99327	-89.88746	83.87702	-352.31622	-407.81064	104.42384	-197.93954	
573	5.720	123.52441	1396.28638	-55.18597							29.90600	1501.84802	0.63750	24.98019	1510.13367	-397.85132	-81.01911	1406.74109	-33.28172	-10.68963	1282.44580	-221.72275	-162.25368	1531.45764	-226.66324	14.74448	1228.78333	-517.56238	-30.28675	1153.25000	77.71457	54.90154	988.68622	-449.08926	164.39459	1008.95367	131.86507	-1.36582	925.93536	-360.30716	-151.48650	924.82745	-119.15780	-268.55237	1016.91370	-396.55356	-10.05514	495.25458	-405.63153	-299.80334	491.53922	-129.99922	-89.96611	84.06938	-352.45251	-407.81598	104.42233	-197.92633	
574	5.730	123.23157	1396.33325	-54.97166							29.38284	1501.74341	0.73955	24.97891	1510.13306	-397.85144	-81.52923	1406.78003	-33.17680	-10.68963	1282.44580	-221.72275	-162.33144	1531.44788	-226.66142	14.85230	1228.82410	-516.93701	-31.00898	1153.08545	78.25285	55.48975	989.01428	-448.58478	163.79764	1009.13446	132.34119	-1.32316	926.37958	-359.90613	-151.82092	924.92920	-118.75074	-268.60358	1016.75513	-396.76410	-10.09808	495.31970	-405.07584	-299.81711	491.52542	-130.00327	-89.95932	84.07712	-352.44949	-407.84747	104.41658	-197.95122	
575	5.740	122.42558	1396.30762	-55.01762							29.12613	1501.87891	0.78999	25.14207	1510.15845	-397.58179	-82.03077	1406.95654	-33.01511	-11.06601	1282.18823	-221.55144	-162.40205	1531.45483	-226.65521	15.05609	1228.65088	-516.27478	-31.69074	1153.41345	78.31226	55.62458	989.18750	-447.79639	163.00771	1009.62152	132.96223	-1.04892	926.29889	-359.88004	-152.19176	924.80408	-118.79834	-268.60818	1016.74670	-396.76724	-10.15174	495.33847	-404.23004	-300.05042	491.62195	-130.08273	-89.97131	84.06562	-352.45383	-407.86554	104.38156	-197.97365	
576	5.750	121.42474	1396.23718	-55.29716							28.82769	1501.87244	0.76770	25.12748	1510.15918	-397.57925	-82.52400	1407.20801	-32.97993	-11.52335	1281.79688	-221.45601	-162.84122	1531.58545	-226.80411	15.42176	1228.10999	-515.42065	-32.18087	1153.68127	78.50542	55.24195	988.83484	-447.27896	162.09692	1009.99963	133.71162	-1.04513	926.34442	-359.40421	-152.15677	924.69342	-118.53023	-268.64337	1016.76135	-396.78003	-10.13442	495.36688	-404.21356	-300.47958	491.67377	-129.91119	-89.87024	83.89465	-352.30951	-408.01874	104.18345	-197.99411	
577	5.760	120.99890	1396.62659	-54.89615							28.48951	1502.07996	0.74652	25.01050	1510.12415	-397.29410	-83.06296	1407.39111	-32.93632	-11.52335	1281.79688	-221.45601	-162.92816	1531.59473	-226.79626	15.63096	1228.06519	-514.83447	-33.93719	1154.00732	78.91394	54.94894	988.50854	-446.73886	161.33218	1010.16095	134.34204	-1.32703	926.41516	-359.39301	-152.36322	924.65253	-117.97498	-268.64987	1016.75616	-396.78354	-9.95088	495.56354	-403.92917	-300.49359	491.77170	-129.65288	-89.95695	84.08645	-352.44537	-407.88141	104.39673	-197.96716	
578	5.770	120.99890	1396.62659	-54.89615							28.22006	1502.05518	1.23955	25.01251	1509.86304	-396.79980	-83.18759	1407.52380	-33.01751	-11.88140	1281.48267	-221.27223	-163.13408	1531.72046	-226.84682	15.89060	1227.74414	-514.68555	-34.72302	1154.21753	79.31808	54.77449	988.33423	-446.42996	160.50708	1010.46478	135.10594	-1.25050	926.32825	-359.09171	-152.73828	924.58862	-118.03590	-268.64392	1016.73462	-396.78412	-9.86570	495.50336	-403.97076	-300.56104	491.75955	-129.68823	-89.96733	84.07874	-352.44809	-408.00504	104.15427	-197.99838	
579	5.780	120.99890	1396.62659	-54.89615							27.72583	1502.02100	1.32472	25.08159	1509.68518	-396.29950	-83.63815	1407.61670	-32.67561	-12.18865	1281.26062	-220.76749	-163.22852	1531.70239	-226.84639	15.86952	1227.93604	-514.51288	-36.08485	1154.40112	79.97465	54.16866	988.13782	-446.37302	159.84767	1010.86774	135.87332	-1.62223	926.06018	-358.76962	-153.12015	924.45154	-118.08762	-268.64514	1016.70056	-396.78958	-10.13552	495.63660	-404.01843	-300.82040	491.64008	-129.71533	-89.88860	83.87696	-352.31616	-407.85315	104.32733	-197.99443	
580	5.790	120.55497	1396.57532	-54.46775							27.15728	1502.18115	1.52643	25.22951	1509.60254	-396.08841	-84.53445	1407.64783	-32.46800	-12.22805	1281.40125	-220.78557	-163.30154	1531.72351	-226.83601	15.90833	1227.92883	-514.54254	-36.54539	1154.15100	80.31902	54.66731	988.23438	-445.96503	159.12427	1011.31445	136.73825	-1.67837	925.92090	-358.64178	-153.55154	924.20093	-117.70979	-268.76575	1016.89929	-397.66580	-9.84668	495.54144	-403.88882	-300.89731	491.60504	-129.55554	-89.97388	84.08004	-352.44696	-408.00159	104.12029	-198.00919	
581	5.800	119.57544	1396.32312	-54.23634							26.84851	1502.29578	1.65954	25.21852	1509.58118	-396.09634	-85.04302	1407.91028	-32.26651	-12.58985	1281.15955	-220.37134	-163.44093	1531.93567	-226.73814	16.04593	1228.05005	-514.04114	-36.88565	1154.18445	80.84183	55.04989	987.87854	-445.77823	158.05641	1011.62512	137.68642	-1.54165	925.89154	-358.48425	-153.60349	924.16296	-117.72659	-268.75330	1016.89160	-397.66162	-9.85193	495.55643	-403.87766	-300.96124	491.59109	-129.58836	-89.97128	84.09244	-352.44147	-408.01318	104.13470	-198.00334	
